<?xml version="1.0" encoding="UTF-8"?>
<svg version="1.1" xmlns="http://www.w3.org/2000/svg" width="612" height="792">
<path d="M0 0 C0.91394531 0.53109375 1.82789063 1.0621875 2.76953125 1.609375 C4.55478033 2.67239547 6.28783068 3.82288359 8 5 C8 5.66 8 6.32 8 7 C8.68449219 7.226875 9.36898438 7.45375 10.07421875 7.6875 C13.74518186 9.33428719 16.65392227 11.53511214 19.8125 14 C20.40998047 14.45117188 21.00746094 14.90234375 21.62304688 15.3671875 C23.12347581 16.52637603 24.56724504 17.75813919 26 19 C26 19.66 26 20.32 26 21 C26.58426758 21.25974609 27.16853516 21.51949219 27.77050781 21.78710938 C30.15561164 23.084656 31.75190637 24.49341122 33.671875 26.40625 C34.33574219 27.06753906 34.99960937 27.72882813 35.68359375 28.41015625 C36.36550781 29.09980469 37.04742187 29.78945312 37.75 30.5 C38.79607422 31.53447266 38.79607422 31.53447266 39.86328125 32.58984375 C40.52199219 33.25113281 41.18070312 33.91242188 41.859375 34.59375 C42.46233398 35.19896484 43.06529297 35.80417969 43.68652344 36.42773438 C45 38 45 38 45 40 C45.66 40 46.32 40 47 40 C48.70926812 42.00705003 50.30189023 44.0152901 51.875 46.125 C52.30941406 46.69476563 52.74382812 47.26453125 53.19140625 47.8515625 C55.93702268 51.47940402 58.50220924 55.19559181 61 59 C61.49242187 59.71542969 61.98484375 60.43085938 62.4921875 61.16796875 C66.42177433 66.9069416 69.77362792 72.84268269 73 79 C73.60714844 80.1034375 74.21429688 81.206875 74.83984375 82.34375 C85.50394901 102.16417526 91.53664134 123.85677448 95 146 C95.12987305 146.82483887 95.25974609 147.64967773 95.39355469 148.49951172 C100.07212433 179.90621238 97.48177742 213.98721661 87 244 C86.69545898 244.87833496 86.39091797 245.75666992 86.07714844 246.66162109 C67.85950974 298.3771051 31.58418838 341.10149717 -18.0234375 365.12109375 C-64.09848391 387.04407785 -117.5739863 390.94990138 -166.02978516 373.98681641 C-173.05812626 371.45047635 -179.5789199 368.83798062 -186 365 C-187.68548547 364.30036452 -189.37104744 363.60089994 -191.05859375 362.90625 C-194.3493252 361.37013391 -197.38927276 359.42475059 -200.4765625 357.51953125 C-202.69916439 356.18115333 -204.941563 354.99246315 -207.25 353.8125 C-214.07701632 350.06125958 -219.97442297 344.89333381 -226 340 C-227.05557353 339.15312699 -228.11154226 338.30674626 -229.16796875 337.4609375 C-242.19207453 326.95025564 -253.20486169 314.52736318 -263 301 C-263.40041504 300.45069824 -263.80083008 299.90139648 -264.21337891 299.33544922 C-275.44802026 283.73907035 -284.69822807 266.37700191 -290.38085938 247.99414062 C-291.01531183 245.95068335 -291.68391174 243.92086358 -292.359375 241.890625 C-295.16000911 233.37283437 -297.42834923 224.83498597 -299 216 C-299.20520264 214.90099365 -299.20520264 214.90099365 -299.41455078 213.77978516 C-305.65158823 179.43037373 -302.33262073 144.19336294 -292 111 C-291.43925781 109.16501953 -291.43925781 109.16501953 -290.8671875 107.29296875 C-288.96287136 101.33260916 -286.71563271 95.63430337 -284 90 C-283.72140137 89.41702148 -283.44280273 88.83404297 -283.15576172 88.23339844 C-278.94163706 79.45524774 -274.45321429 71.08822999 -269 63 C-268.360625 62.01 -267.72125 61.02 -267.0625 60 C-261.15621237 51.40903618 -255.11990376 42.63690921 -248 35 C-247.34 35 -246.68 35 -246 35 C-245.773125 34.443125 -245.54625 33.88625 -245.3125 33.3125 C-243.62449964 30.33840412 -241.53323483 28.27991135 -239 26 C-238.34 26 -237.68 26 -237 26 C-236.76796875 25.42507812 -236.5359375 24.85015625 -236.296875 24.2578125 C-222.92660393 0.98065383 -179.03467774 -15.12131206 -155.23242188 -22.12744141 C-102.10562738 -36.46846584 -47.06380753 -28.12022251 0 0 Z " fill="#110833" transform="translate(408,198)"/>
<path d="M0 0 C3.7602985 0.58107632 6.53035032 1.65199496 9.8125 3.5625 C10.60269531 4.01753906 11.39289063 4.47257812 12.20703125 4.94140625 C12.79871094 5.29074219 13.39039063 5.64007813 14 6 C13.47731534 8.76276177 12.89130413 11.3260876 12 14 C13.2375 13.835 14.475 13.67 15.75 13.5 C17.49883744 13.3215472 19.2490194 13.15602797 21 13 C22.44439453 12.86271484 22.44439453 12.86271484 23.91796875 12.72265625 C32.08314763 12.28957432 36.41568939 14.42143632 43 19 C44.76825157 19.9630887 46.53906741 20.92148528 48.3125 21.875 C54.95137294 25.8853364 57.29969528 30.9175849 59.75 38.0625 C61.98286874 43.95655028 65.87292698 46.61062623 71 50 C72.35680236 50.97551119 73.71126849 51.95428683 75.0625 52.9375 C76.031875 53.618125 77.00125 54.29875 78 55 C77.40917177 58.86177782 76.26334821 61.70717428 74.33984375 65.09765625 C73.79706787 66.05913574 73.25429199 67.02061523 72.69506836 68.01123047 C72.1150708 69.01814941 71.53507324 70.02506836 70.9375 71.0625 C70.34912354 72.09004395 69.76074707 73.11758789 69.15454102 74.17626953 C57.45886026 94.45477322 57.45886026 94.45477322 54.11865234 95.703125 C50.45185539 96.21693292 47.40020038 94.21192289 44.1875 92.625 C43.43194824 92.25995361 42.67639648 91.89490723 41.89794922 91.51879883 C35.68974277 88.46280108 29.77666602 85.02208839 23.89453125 81.38671875 C19.75452557 78.82857227 15.53638315 76.41621768 11.3125 74 C1.55042018 68.39464358 -8.05572391 62.53705711 -17.65698242 56.66210938 C-18.24598328 56.30242569 -18.83498413 55.942742 -19.4418335 55.57215881 C-21.05442592 54.58715398 -22.66580257 53.60015955 -24.27709961 52.61303711 C-26.48607406 51.30444801 -28.68441338 50.10435669 -31 49 C-30.63551525 42.19628464 -27.77643367 37.33947004 -24.4375 31.5 C-23.34285005 29.54868166 -22.2491037 27.59685616 -21.15625 25.64453125 C-20.61871094 24.6901416 -20.08117187 23.73575195 -19.52734375 22.75244141 C-18.1525113 20.27484214 -16.82707076 17.78131003 -15.53125 15.26171875 C-15.17232666 14.565625 -14.81340332 13.86953125 -14.44360352 13.15234375 C-13.7886845 11.87333666 -13.1403699 10.59091908 -12.49975586 9.3046875 C-10.33083684 5.11027895 -10.33083684 5.11027895 -7 4 C-4.8125 4.4375 -4.8125 4.4375 -3 5 C-2.01 3.35 -1.02 1.7 0 0 Z " fill="#FBFBFB" transform="translate(214,298)"/>
<path d="M0 0 C2.31 0 4.62 0 7 0 C8.34320667 4.02962001 8.44467806 7.90313581 8.6875 12.125 C8.74744141 12.94226563 8.80738281 13.75953125 8.86914062 14.6015625 C9.23448788 20.92757527 8.88121535 27.2375693 6 33 C4.91053343 47.4845474 6.54399214 60.9836203 15.9140625 72.6875 C20.54042952 77.81635632 25.05349906 82.59408182 32.2878418 83.18774414 C35.02821401 83.26925265 37.75855913 83.27262537 40.5 83.25 C41.43714844 83.25773437 42.37429688 83.26546875 43.33984375 83.2734375 C48.05415183 83.26006358 51.68627222 83.08702259 56 81 C59.3125 80.875 59.3125 80.875 62 81 C62.77318447 83.25605518 63.16087769 84.53407825 62.37011719 86.82421875 C62.01594727 87.43910156 61.66177734 88.05398438 61.296875 88.6875 C60.89903809 89.38053223 60.50120117 90.07356445 60.09130859 90.78759766 C59.64867676 91.51769043 59.20604492 92.2477832 58.75 93 C58.29834473 93.75458496 57.84668945 94.50916992 57.38134766 95.28662109 C53.02531234 102.33803749 47.99093914 108.27312429 42 114 C41.45682129 114.53947266 40.91364258 115.07894531 40.35400391 115.63476562 C34.48868376 121.16488049 27.77618461 124.62736043 20.625 128.25 C18.87316406 129.16652344 18.87316406 129.16652344 17.0859375 130.1015625 C8.01867052 134.75717716 -0.25935199 138.47619425 -10.5625 138.25 C-12.35880859 138.22679687 -12.35880859 138.22679687 -14.19140625 138.203125 C-17 138 -17 138 -18 137 C-18.46927412 133.16299398 -18.29576453 131.44705708 -16.13671875 128.18359375 C-15.32847656 127.27738281 -14.52023437 126.37117188 -13.6875 125.4375 C-6.28985497 117.03920733 -2.50780914 108.95124952 -3 97.5625 C-4.63488486 82.47125514 -13.79770003 69.70350155 -25.23046875 60.1328125 C-30.17280272 56.65787459 -35.44585879 54.50528378 -41.046875 52.30078125 C-45.39770654 50.38434355 -49.17970845 47.80733546 -53 45 C-51.62527146 40.87581438 -48.84529489 39.85536137 -45.25 37.8125 C-43.86936607 37.00723967 -42.48916478 36.20123715 -41.109375 35.39453125 C-40.41521484 34.99186035 -39.72105469 34.58918945 -39.00585938 34.17431641 C-36.14087497 32.49703123 -33.32063394 30.75061733 -30.5 29 C-28.93765625 28.03900391 -28.93765625 28.03900391 -27.34375 27.05859375 C-25.58034634 25.97294687 -23.8174082 24.88652305 -22.05859375 23.79345703 C-20.0433653 22.54267579 -18.02222569 21.30192865 -16 20.0625 C-15.06510742 19.47758789 -15.06510742 19.47758789 -14.11132812 18.88085938 C-9.69222447 16.18909266 -6.35669898 14.63340238 -1.1875 15.4375 C-0.465625 15.623125 0.25625 15.80875 1 16 C1.09752461 10.53862186 0.77249145 5.40744018 0 0 Z " fill="#FCFCFC" transform="translate(411,347)"/>
<path d="M0 0 C4.13133645 1.51353634 7.77157103 3.52460825 11.5625 5.75 C15.9955561 8.3300794 20.44243203 10.7636905 25.0625 13 C30.44824323 15.63587962 35.4583072 18.7093788 40.53125 21.8984375 C46.50479118 25.5849061 52.77560006 28.76296766 59 32 C55.8956059 35.42161843 52.23821517 36.60133199 48 38.1875 C34.04632369 43.68328358 23.98173966 51.61531882 17.75 65.375 C17.41226563 66.07882812 17.07453125 66.78265625 16.7265625 67.5078125 C11.70212589 78.34793557 10.78987663 88.0218133 14.44921875 99.4921875 C17.32721166 106.00210597 21.96503905 111.96503905 27 117 C27.125 120 27.125 120 27 123 C24.78237512 125.21762488 19.54107165 124.37197583 16.48242188 124.3828125 C9.46561716 124.23470053 4.2194168 122.21453003 -2 119 C-3.30173994 118.37416995 -4.6052341 117.75197992 -5.91015625 117.1328125 C-23.98086596 108.46947652 -37.87140012 98.60936781 -48 81 C-48.59039062 80.08605469 -49.18078125 79.17210937 -49.7890625 78.23046875 C-50.35367188 77.35003906 -50.91828125 76.46960938 -51.5 75.5625 C-52.0053125 74.78003906 -52.510625 73.99757813 -53.03125 73.19140625 C-54.16453813 70.62779884 -53.98453347 69.57267972 -53 67 C-47.53819764 66.74596268 -47.53819764 66.74596268 -44.90625 67.98828125 C-40.67200264 69.46230015 -36.6387319 69.32887686 -32.1875 69.3125 C-31.32318359 69.32861328 -30.45886719 69.34472656 -29.56835938 69.36132812 C-22.65893195 69.36654279 -16.97537207 68.43867521 -11.53125 63.9765625 C-9.27865785 61.3687539 -7.11203362 58.72331545 -5 56 C-4.22527344 55.0615625 -3.45054687 54.123125 -2.65234375 53.15625 C4.27431997 43.67637162 4.38786043 34.37795486 3 23 C2.38351983 20.08635629 1.62189596 17.35996507 0.66796875 14.54296875 C-0.58343308 9.77886004 -0.23022908 4.88597264 0 0 Z " fill="#FCFCFC" transform="translate(192,361)"/>
<path d="M0 0 C3 1 3 1 4.05566406 2.52441406 C4.53084473 3.51006348 4.53084473 3.51006348 5.015625 4.515625 C5.37664307 5.26287842 5.73766113 6.01013184 6.10961914 6.7800293 C6.67410767 8.00266479 6.67410767 8.00266479 7.25 9.25 C7.6411499 10.08378174 8.0322998 10.91756348 8.43530273 11.77661133 C12.75283544 21.24079041 15.94784022 31.06817964 19 41 C9.09385875 46.12519497 -4.11525347 44.10298523 -15 44 C-14.65066406 44.66386719 -14.30132812 45.32773437 -13.94140625 46.01171875 C-13.48636719 46.89472656 -13.03132813 47.77773438 -12.5625 48.6875 C-12.11003906 49.55761719 -11.65757812 50.42773438 -11.19140625 51.32421875 C-10.04008072 53.90998264 -9.43679247 56.21356528 -9 59 C-10.11117187 59.65226562 -11.22234375 60.30453125 -12.3671875 60.9765625 C-22.39623758 66.86710542 -32.40487488 72.78163342 -42.3125 78.875 C-43.40175781 79.54402344 -44.49101562 80.21304688 -45.61328125 80.90234375 C-47.93334594 82.33933883 -50.2422021 83.78690656 -52.54296875 85.25390625 C-53.12199951 85.6195166 -53.70103027 85.98512695 -54.29760742 86.36181641 C-55.90998469 87.38062241 -57.51763898 88.4068919 -59.125 89.43359375 C-61.8474734 90.91689787 -63.94822708 91.60169875 -67 92 C-72.12749487 84.56656471 -76.81799451 76.98343939 -81.3371582 69.17163086 C-84.22394503 64.21860686 -87.30840196 59.49406417 -90.72265625 54.8828125 C-92 53 -92 53 -93 50 C-85.49805561 44.85229577 -77.63991959 40.65379427 -69.56591797 36.49121094 C-59.63510586 31.34605771 -49.93208169 25.81114656 -40.23217773 20.24584961 C-34.39629229 16.98865575 -34.39629229 16.98865575 -31.953125 17.05859375 C-29.11405748 18.4270243 -28.26625849 20.3401268 -26.75 23.0625 C-25.96882813 24.44115234 -25.96882813 24.44115234 -25.171875 25.84765625 C-24.78515625 26.55792969 -24.3984375 27.26820313 -24 28 C-20.37998457 26.95787575 -20.37998457 26.95787575 -17.98046875 24.26171875 C-17.65691406 23.51535156 -17.33335937 22.76898438 -17 22 C-15.46644624 19.90573189 -13.91430467 17.85281586 -12.3125 15.8125 C-11.86986816 15.24313721 -11.42723633 14.67377441 -10.97119141 14.0871582 C-9.65034579 12.38916698 -8.32523661 10.69456485 -7 9 C-5.62473298 7.22937403 -4.24969048 5.45857362 -2.875 3.6875 C-1.91703899 2.45804313 -0.95886875 1.22874903 0 0 Z " fill="#FAFAFB" transform="translate(411,298)"/>
<path d="M0 0 C6.9144705 0.2004746 13.22367309 1.23722773 19.89135742 3.06152344 C20.88844727 3.32602295 21.88553711 3.59052246 22.9128418 3.86303711 C30.20696833 5.88610949 36.80443348 8.54560458 43.48510742 12.08105469 C46.62615504 13.66867537 46.62615504 13.66867537 50.26245117 14.00683594 C56.96092851 14.9825679 61.84437865 20.21818955 66.01635742 25.31152344 C69.09467557 29.71155714 70.46451788 34.30557936 71.64135742 39.49902344 C71.95073242 40.69527344 72.26010742 41.89152344 72.57885742 43.12402344 C72.66568215 47.81255863 70.96422573 50.52479448 68.64135742 54.49902344 C67.55495984 56.4973606 66.47171349 58.49741362 65.39135742 60.49902344 C64.47608257 62.16645485 63.55990409 63.83339215 62.64135742 65.49902344 C58.21331649 64.99296162 55.79652881 63.64381597 52.64135742 60.49902344 C51.01635742 57.25683594 51.01635742 57.25683594 49.64135742 53.62402344 C46.27127155 44.75839981 41.91251193 40.13307135 33.70385742 35.81152344 C33.01356445 35.43447266 32.32327148 35.05742187 31.61206055 34.66894531 C29.63128884 33.59313281 27.64003798 32.54112105 25.64135742 31.49902344 C24.56112305 30.93570312 23.48088867 30.37238281 22.36791992 29.79199219 C19.55139287 28.35781228 19.55139287 28.35781228 15.95385742 27.49902344 C9.87253528 25.34227547 2.55476784 18.32584428 -0.35864258 12.49902344 C-1.34864258 13.81902344 -2.33864258 15.13902344 -3.35864258 16.49902344 C-5.74428335 15.92317911 -8.02547042 15.27674749 -10.35864258 14.49902344 C-5.1937455 1.09885269 -5.1937455 1.09885269 0 0 Z " fill="#CE7E81" transform="translate(227.358642578125,277.5009765625)"/>
<path d="M0 0 C6.86426739 5.32903339 9.34459832 13.06138702 10.7421875 21.3828125 C12.01653767 31.56226024 10.15656067 38.59331585 6.06640625 47.97265625 C5.64746094 49.02066406 5.22851562 50.06867188 4.796875 51.1484375 C2.30899269 57.36419425 -0.51667461 63.214784 -3.93359375 68.97265625 C-9.4289634 66.55058064 -11.00932133 62.31678137 -13.12109375 56.9609375 C-14.21561109 53.96127593 -15.25963478 50.95015926 -16.27050781 47.92138672 C-16.93822198 45.95905444 -17.64799838 44.01574604 -18.36328125 42.0703125 C-21.91837283 32.06768413 -24.76719614 20.47802206 -20.5546875 10.21484375 C-18.38212957 5.86972788 -16.04678216 2.5757647 -12.12109375 -0.40234375 C-7.81095873 -1.6338109 -4.00981999 -2.13047002 0 0 Z " fill="#9F79CC" transform="translate(310.93359375,217.02734375)"/>
<path d="M0 0 C11.34019502 4.25257313 17.25412603 16.42686868 22.09692383 26.79467773 C26.41548734 36.63438107 27.36897537 46.29971431 27 57 C23.28833371 57.6258042 21.30098896 56.76555057 18.328125 54.69140625 C16.95719697 53.66367061 15.59829199 52.61975726 14.25 51.5625 C13.17939331 50.73335083 13.17939331 50.73335083 12.0871582 49.88745117 C0.95111519 41.14611987 -10.39730696 29.80807911 -15 16 C-15.90626688 6.26877364 -15.90626688 6.26877364 -13.125 2.375 C-8.7349864 -0.46559703 -5.14912866 -0.56172313 0 0 Z " fill="#CB777A" transform="translate(256,229)"/>
<path d="M0 0 C5.4452496 3.0963184 9.99837069 6.42438177 12.3125 12.375 C13.5457509 18.87759567 13.59332687 23.30024014 10 29 C7.6875 31.625 7.6875 31.625 5 34 C3.7625 35.1446875 3.7625 35.1446875 2.5 36.3125 C-2.95856673 38.94430896 -8.06001069 38.92589761 -14 38 C-20.69477104 35.27838685 -25.34401107 30.12378145 -29 24 C-30.8416739 18.4749783 -30.3751553 14.21448666 -28.0625 8.9375 C-21.86412252 -2.53124929 -11.58721279 -4.26390159 0 0 Z " fill="#150D37" transform="translate(246,328)"/>
<path d="M0 0 C3.16234518 -0.43786318 4.84526478 -0.52028899 7.79296875 0.73828125 C11.15051013 4.52654277 13.56167544 8.52958404 15.88867188 13.00732422 C16.64569792 14.45638325 17.46967735 15.87019847 18.30859375 17.2734375 C20.0730745 20.32598919 20.91874538 22.0954229 20.23046875 25.61328125 C18.79296875 27.73828125 18.79296875 27.73828125 15.79296875 29.73828125 C15.15488281 28.59488281 14.51679688 27.45148438 13.859375 26.2734375 C13.02482688 24.78250322 12.19018671 23.29162046 11.35546875 21.80078125 C10.93458984 21.04603516 10.51371094 20.29128906 10.08007812 19.51367188 C9.67724609 18.79501953 9.27441406 18.07636719 8.859375 17.3359375 C8.48756104 16.67086182 8.11574707 16.00578613 7.73266602 15.32055664 C6.88949161 13.75250293 6.88949161 13.75250293 5.79296875 12.73828125 C5.38046875 13.21136719 4.96796875 13.68445313 4.54296875 14.171875 C3.31337539 15.57986919 2.07995717 16.98452785 0.84375 18.38671875 C-0.49072367 19.91691523 -1.80702225 21.46321883 -3.1015625 23.02734375 C-8.8565731 29.84896528 -15.13657204 34.72206591 -23.109375 38.73828125 C-23.78605225 39.08173584 -24.46272949 39.42519043 -25.15991211 39.77905273 C-26.49851167 40.4471552 -27.84691254 41.09605695 -29.20532227 41.72290039 C-31.35407417 42.73170011 -31.35407417 42.73170011 -34.20703125 44.73828125 C-34.46484375 45.68832031 -34.72265625 46.63835937 -34.98828125 47.6171875 C-37.02101706 52.82281542 -41.86902369 54.26138326 -46.70703125 56.61328125 C-47.68285156 57.11085938 -48.65867187 57.6084375 -49.6640625 58.12109375 C-56.84875086 61.73828125 -56.84875086 61.73828125 -59.20703125 61.73828125 C-63.6295311 55.61010594 -67.47701601 49.43284705 -67.20703125 41.73828125 C-65.76953125 38.73828125 -65.76953125 38.73828125 -64.20703125 36.73828125 C-61.20703125 40.48828125 -61.20703125 40.48828125 -61.20703125 42.73828125 C-56.78241087 41.75014024 -52.36949542 40.71674991 -47.95703125 39.67578125 C-46.10464844 39.26295898 -46.10464844 39.26295898 -44.21484375 38.84179688 C-25.11147305 34.26704231 -11.70324632 22.272594 0.79296875 7.73828125 C1.12296875 7.07828125 1.45296875 6.41828125 1.79296875 5.73828125 C-15.78253214 9.94369582 -15.78253214 9.94369582 -32.46484375 16.734375 C-35.59560197 17.88053577 -37.085033 17.82395884 -40.20703125 16.73828125 C-40.86703125 16.07828125 -41.52703125 15.41828125 -42.20703125 14.73828125 C-31.26808109 7.08101614 -18.12266981 3.60435539 -5.13134766 1.11181641 C-3.41327817 0.77831649 -1.70552942 0.39262492 0 0 Z " fill="#F8F7F9" transform="translate(379.20703125,277.26171875)"/>
<path d="M0 0 C2.62813169 3.36729373 2.77106408 5.58471076 2.54296875 9.7890625 C1.51925149 15.01812187 -1.11487336 19.14813242 -4 23.5625 C-4.58007812 24.47128906 -5.16015625 25.38007813 -5.7578125 26.31640625 C-13.13867959 37.17153087 -24.50685311 47.98509666 -36 54.5625 C-38.34375 54.296875 -38.34375 54.296875 -40 53.5625 C-39.52936376 36.54899986 -35.03391375 16.60999541 -22.6875 3.89453125 C-15.21785177 -2.00164942 -8.84887464 -4.24008577 0 0 Z " fill="#C076CB" transform="translate(369,231.4375)"/>
<path d="M0 0 C-6.15886675 13.31127457 -21.31007277 25.2843214 -34.8046875 30.59765625 C-39.53780814 32.26985028 -44.37867478 33.49135115 -49.25 34.6875 C-50.13429688 34.91244141 -51.01859375 35.13738281 -51.9296875 35.36914062 C-53.20972656 35.6872168 -53.20972656 35.6872168 -54.515625 36.01171875 C-55.28165039 36.20209717 -56.04767578 36.39247559 -56.83691406 36.58862305 C-59 37 -59 37 -63 37 C-64.79461673 34.36789546 -65.61149973 33.09764215 -66 30 C-63.76624222 22.85574515 -60.24722708 17.12051148 -54 13 C-53.154375 12.4225 -52.30875 11.845 -51.4375 11.25 C-48.85216748 9.92418845 -46.89811394 9.22293184 -44 9 C-42.66666667 9.66666667 -41.33333333 10.33333333 -40 11 C-35.74152539 10.49321883 -32.10809297 8.86532689 -28.1875 7.1875 C-22.65260446 4.89151254 -17.1292493 3.06694189 -11.3125 1.625 C-10.64178467 1.45766357 -9.97106934 1.29032715 -9.2800293 1.11791992 C-6.05513598 0.35431316 -3.34172974 0 0 0 Z " fill="#C57DCF" transform="translate(381,283)"/>
<path d="M0 0 C6.93245886 0.20112532 13.26888028 1.23883261 19.95605469 3.06152344 C20.95064697 3.32529785 21.94523926 3.58907227 22.9699707 3.86083984 C31.11585098 6.12743913 38.34999946 9.22654222 45.64355469 13.49902344 C44.51855469 15.06152344 44.51855469 15.06152344 42.64355469 16.49902344 C37.74806118 16.2507013 33.31650266 14.39430286 28.76855469 12.68652344 C20.52137592 9.67083874 12.19661078 7.45598109 3.64355469 5.49902344 C16.81490577 22.01547956 30.25426808 33.49360159 50.95605469 39.37402344 C51.70886719 39.58945801 52.46167969 39.80489258 53.23730469 40.02685547 C57.77024121 41.23730998 61.91685891 41.99026432 66.64355469 41.49902344 C67.30355469 40.50902344 67.96355469 39.51902344 68.64355469 38.49902344 C70.12855469 38.99402344 70.12855469 38.99402344 71.64355469 39.49902344 C73.24209846 45.89319852 71.892579 48.94022077 68.64355469 54.49902344 C67.5571571 56.4973606 66.47391076 58.49741362 65.39355469 60.49902344 C64.47827984 62.16645485 63.56210135 63.83339215 62.64355469 65.49902344 C58.21551375 64.99296162 55.79872608 63.64381597 52.64355469 60.49902344 C51.01855469 57.25683594 51.01855469 57.25683594 49.64355469 53.62402344 C46.27346882 44.75839981 41.91470919 40.13307135 33.70605469 35.81152344 C33.01576172 35.43447266 32.32546875 35.05742187 31.61425781 34.66894531 C29.6334861 33.59313281 27.64223524 32.54112105 25.64355469 31.49902344 C24.56332031 30.93570312 23.48308594 30.37238281 22.37011719 29.79199219 C19.55359014 28.35781228 19.55359014 28.35781228 15.95605469 27.49902344 C9.87473255 25.34227547 2.55696511 18.32584428 -0.35644531 12.49902344 C-1.34644531 13.81902344 -2.33644531 15.13902344 -3.35644531 16.49902344 C-5.74208608 15.92317911 -8.02327315 15.27674749 -10.35644531 14.49902344 C-5.19178298 1.09946171 -5.19178298 1.09946171 0 0 Z " fill="#F7F6F7" transform="translate(227.3564453125,277.5009765625)"/>
<path d="M0 0 C0 5.0158077 -1.16930018 5.71014922 -4.5625 9.25 C-5.48880069 10.23258349 -6.41457979 11.21565894 -7.33984375 12.19921875 C-8.21769531 13.12347656 -9.09554687 14.04773438 -10 15 C-14.62786771 20.11207117 -18.93243724 25.40805389 -23.10546875 30.8984375 C-25.01133916 33.01257829 -26.45908015 33.82696343 -29 35 C-29.42297363 34.18378174 -29.42297363 34.18378174 -29.85449219 33.35107422 C-31.14942954 30.85717972 -32.44966792 28.36608561 -33.75 25.875 C-34.1934375 25.0190625 -34.636875 24.163125 -35.09375 23.28125 C-37.02905575 19.58140077 -38.94792923 15.96116082 -41.32421875 12.5234375 C-43 10 -43 10 -43.0625 7.75 C-41.49716693 5.17180436 -39.85626569 4.9279045 -37 4 C-34.38566359 3.62171981 -31.81323529 3.31090061 -29.1875 3.0625 C-21.77733899 2.29436862 -14.57914854 1.03029122 -7.29296875 -0.51171875 C-4.35061937 -0.94801018 -2.73705056 -1.02725575 0 0 Z " fill="#19103A" transform="translate(378,340)"/>
<path d="M0 0 C1 1 1 1 1.125 2.78515625 C0.80327308 8.64661864 -0.76125632 11.89546056 -4.8515625 16.0859375 C-14.0867668 24.31366497 -23.48301405 29.7473152 -36.08203125 29.33984375 C-40.30900549 28.84754555 -44.09354266 27.65728493 -48 26 C-48 25.01 -48 24.02 -48 23 C-45.89853711 21.51223866 -43.86292538 20.25282461 -41.625 19 C-40.25194891 18.20555851 -38.87958315 17.40993165 -37.5078125 16.61328125 C-36.77723633 16.19256348 -36.04666016 15.7718457 -35.29394531 15.33837891 C-31.32221844 13.02111553 -27.41475558 10.59933445 -23.5 8.1875 C-21.33919251 6.85762762 -19.17696969 5.53083856 -17.00634766 4.21704102 C-15.68652927 3.41644542 -14.37341089 2.60468038 -13.06787109 1.78100586 C-7.94729999 -1.35173188 -5.67027662 -1.27092407 0 0 Z " fill="#C078CA" transform="translate(412,363)"/>
<path d="M0 0 C-5.79576949 12.52650561 -19.10578947 22.62050687 -31 29 C-33.93359375 29.7578125 -33.93359375 29.7578125 -36 30 C-36.06058594 28.95199219 -36.12117188 27.90398437 -36.18359375 26.82421875 C-36.26801738 25.44529952 -36.35266447 24.06639395 -36.4375 22.6875 C-36.47681641 21.99720703 -36.51613281 21.30691406 -36.55664062 20.59570312 C-36.74927415 17.52838465 -37.02322717 14.93031848 -38 12 C-26.7881646 5.71359518 -13.02981012 0 0 0 Z " fill="#19103A" transform="translate(381,283)"/>
<path d="M0 0 C6.5220131 0.54132709 12.29317369 1.77224633 18.5 3.8125 C19.68529297 4.1847168 19.68529297 4.1847168 20.89453125 4.56445312 C26.44132184 6.34832277 31.72184873 8.53670509 37 11 C36.67 11.99 36.34 12.98 36 14 C35.92948886 16.73865287 35.90642235 19.45027588 35.9375 22.1875 C35.94201172 22.93708984 35.94652344 23.68667969 35.95117188 24.45898438 C35.96293646 26.30602383 35.98087135 28.15302213 36 30 C22.27379958 27.98649654 7.95128323 12.64068785 0 2 C0 1.34 0 0.68 0 0 Z " fill="#1A1039" transform="translate(231,283)"/>
<path d="M0 0 C5.53690578 0.89474713 10.90814634 1.89095212 16.25 3.625 C20.39501006 4.91866556 23.67167285 5.54104089 28 5 C28.66 4.01 29.32 3.02 30 2 C30.99 2.33 31.98 2.66 33 3 C34.59854377 9.39417509 33.24902432 12.44119734 30 18 C28.91360242 19.99833716 27.83035607 21.99839018 26.75 24 C25.83472515 25.66743141 24.91854666 27.33436871 24 29 C19.57195907 28.49393818 17.15517139 27.14479254 14 24 C12.375 20.7578125 12.375 20.7578125 11 17.125 C8.95093089 11.96214289 6.94843602 7.94843602 3 4 C2 3 1 2 0 1 C0 0.67 0 0.34 0 0 Z " fill="#F9F6F7" transform="translate(266,314)"/>
<path d="M0 0 C4.88268422 1.7916301 9.40868492 4.20377737 14 6.625 C14.84143555 7.0679541 15.68287109 7.5109082 16.54980469 7.96728516 C22.62171766 11.19552275 28.49177528 14.63481735 34.30859375 18.3046875 C37.48679361 20.30663052 40.72079199 22.16974436 44 24 C43 26 43 26 41.2734375 26.59375 C30.29577197 28.5553947 22.2356127 25.88406597 13 20 C7.22246409 15.65745676 2.87968151 11.72831246 0 5 C-0.1875 2.125 -0.1875 2.125 0 0 Z " fill="#C9787B" transform="translate(199,365)"/>
<path d="M0 0 C0 1.65 0 3.3 0 5 C-5.94 8.3 -11.88 11.6 -18 15 C-20.22382199 12.03490401 -22.14265723 9.18401617 -24 6 C-23.40461426 5.85377197 -22.80922852 5.70754395 -22.19580078 5.55688477 C-19.50492304 4.89454315 -16.81495783 4.22856732 -14.125 3.5625 C-13.18785156 3.33240234 -12.25070312 3.10230469 -11.28515625 2.86523438 C-10.38925781 2.64287109 -9.49335938 2.42050781 -8.5703125 2.19140625 C-7.32918701 1.88505249 -7.32918701 1.88505249 -6.06298828 1.57250977 C-0.39658849 0 -0.39658849 0 0 0 Z " fill="#C27BCB" transform="translate(344,322)"/>
<path d="M0 0 C5.50808397 0.59015185 10.64878069 1.56663769 16 3 C14.31326082 7.49797113 12.18326108 11.72886302 10 16 C6.51809243 14.3790111 5.17429431 13.34557613 3.41796875 9.86328125 C3.01191406 8.69152344 2.60585938 7.51976562 2.1875 6.3125 C1.55908203 4.54326172 1.55908203 4.54326172 0.91796875 2.73828125 C0.61503906 1.83464844 0.31210937 0.93101562 0 0 Z " fill="#C9797B" transform="translate(275,325)"/>
<path d="M0 0 C4.27211008 1.44350594 6.07428911 5.13292977 8.3125 8.86328125 C9 10.67578125 9 10.67578125 9 13.67578125 C8.01 13.67578125 7.02 13.67578125 6 13.67578125 C5.58427734 12.82693359 5.58427734 12.82693359 5.16015625 11.9609375 C4.79792969 11.22746094 4.43570312 10.49398437 4.0625 9.73828125 C3.70285156 9.00738281 3.34320313 8.27648437 2.97265625 7.5234375 C2.13628173 5.71329098 2.13628173 5.71329098 1 4.67578125 C-2.37357334 4.17507804 -2.37357334 4.17507804 -6 4.67578125 C-8.66570809 7.27133912 -9.825604 9.15259325 -11 12.67578125 C-11.99 12.34578125 -12.98 12.01578125 -14 11.67578125 C-13.49572053 7.26333589 -11.98672249 4.92603808 -9 1.67578125 C-5.63532814 -0.56733332 -3.94050213 -0.60121632 0 0 Z " fill="#F4EFF9" transform="translate(307,219.32421875)"/>
<path d="M0 0 C3.45925163 1.2491742 6.14693203 2.67527795 9 5 C8.25 9.75 8.25 9.75 6 12 C2.02867481 11.67800066 -0.70665213 10.16420003 -4 8 C-3.50168276 4.31245243 -2.89932357 2.39509338 0 0 Z " fill="#190F38" transform="translate(216,300)"/>
<path d="M0 0 C0.99 0.66 1.98 1.32 3 2 C3 2.66 3 3.32 3 4 C1.89591797 4.00386719 1.89591797 4.00386719 0.76953125 4.0078125 C-4.79934616 4.07096524 -4.79934616 4.07096524 -9.73828125 6.26171875 C-11.21871528 8.01674645 -11.21871528 8.01674645 -13 11 C-13.96534522 12.35863401 -14.95277149 13.70343137 -16 15 C-16.66 15 -17.32 15 -18 15 C-17.84238796 8.69551854 -14.32392365 5.18412011 -10 1 C-6.87293041 -0.5635348 -3.42017557 -0.39958487 0 0 Z " fill="#EFEFF1" transform="translate(239,330)"/>
<path d="M0 0 C-0.33 0.99 -0.66 1.98 -1 3 C-3.08544922 3.79956055 -3.08544922 3.79956055 -5.8046875 4.38671875 C-6.78050781 4.60263672 -7.75632812 4.81855469 -8.76171875 5.04101562 C-9.78910156 5.25435547 -10.81648438 5.46769531 -11.875 5.6875 C-13.40447266 6.02491211 -13.40447266 6.02491211 -14.96484375 6.36914062 C-22.48959916 8 -22.48959916 8 -26 8 C-26 7.01 -26 6.02 -26 5 C-23.60468067 4.35220924 -21.20878252 3.70670991 -18.8125 3.0625 C-18.13896484 2.88009766 -17.46542969 2.69769531 -16.77148438 2.50976562 C-11.0157937 0.96555593 -5.96977222 -0.13883191 0 0 Z " fill="#EFEEF1" transform="translate(368,344)"/>
<path d="M0 0 C5.24723576 0.65590447 7.02778044 2.64565383 10.28125 6.60546875 C17.40356711 16.52815145 17.40356711 16.52815145 16.625 21.296875 C16.315625 22.13992188 16.315625 22.13992188 16 23 C12.35951614 21.17975807 11.31011326 16.64348682 9.6328125 13.078125 C7.5477367 9.14740794 5.32149775 5.99112332 1.75 3.3125 C1.1725 2.879375 0.595 2.44625 0 2 C0 1.34 0 0.68 0 0 Z " fill="#FBF5F6" transform="translate(260,240)"/>
<path d="M0 0 C2.4375 1.4375 2.4375 1.4375 4 3 C4 3.66 4 4.32 4 5 C5.32 5.66 6.64 6.32 8 7 C8 7.99 8 8.98 8 10 C6.0625 9.6875 6.0625 9.6875 4 9 C3.67 8.01 3.34 7.02 3 6 C2.34 6 1.68 6 1 6 C1 5.34 1 4.68 1 4 C-4.4844267 3.25669086 -4.4844267 3.25669086 -10 3 C-9.67 2.01 -9.34 1.02 -9 0 C-5.84876177 -1.57561912 -3.37430208 -0.69813146 0 0 Z " fill="#FAF3F3" transform="translate(280,295)"/>
<path d="M0 0 C-1 2 -1 2 -3.8125 3.3125 C-7.81163469 5.42968895 -9.98749436 7.97498871 -12 12 C-12.99 12 -13.98 12 -15 12 C-14.49445676 7.57649669 -13.04984798 5.21928398 -10 2 C-6.33585854 -0.81857036 -4.43742538 -1.39461941 0 0 Z " fill="#F9F1FA" transform="translate(337,297)"/>
<path d="M0 0 C0.99 0.33 1.98 0.66 3 1 C2.52949219 1.73605469 2.05898438 2.47210938 1.57421875 3.23046875 C0.95160156 4.20628906 0.32898438 5.18210938 -0.3125 6.1875 C-0.92738281 7.15042969 -1.54226563 8.11335937 -2.17578125 9.10546875 C-3.36687597 10.99540706 -4.51289662 12.91472804 -5.60546875 14.86328125 C-6.06566406 15.56839844 -6.52585937 16.27351563 -7 17 C-7.66 17 -8.32 17 -9 17 C-8.65310247 10.2354981 -4.68483134 4.68483134 0 0 Z " fill="#FAF4FB" transform="translate(348,239)"/>
<path d="M0 0 C0.66 0.33 1.32 0.66 2 1 C1.72285156 1.53109375 1.44570313 2.0621875 1.16015625 2.609375 C0.79792969 3.31578125 0.43570312 4.0221875 0.0625 4.75 C-0.29714844 5.44609375 -0.65679687 6.1421875 -1.02734375 6.859375 C-2.06561974 8.94751947 -2.06561974 8.94751947 -2.46875 11.125 C-3.31192393 14.10090798 -5.5685375 15.25433461 -8 17 C-8.66 16.67 -9.32 16.34 -10 16 C-9.0936096 14.07845236 -8.17443196 12.16293346 -7.25 10.25 C-6.48429687 8.64898437 -6.48429687 8.64898437 -5.703125 7.015625 C-4.07514361 4.13305245 -2.45155092 2.19573691 0 0 Z " fill="#BC75C8" transform="translate(325,297)"/>
<path d="M0 0 C1.0383038 3.1149114 1.79893666 5.7159655 2 9 C1.38125 9.598125 0.7625 10.19625 0.125 10.8125 C-3.04831744 14.07915031 -2.81173615 17.59462592 -3 22 C-3.33 22 -3.66 22 -4 22 C-4.05420701 19.43721301 -4.09377007 16.87558517 -4.125 14.3125 C-4.15013672 13.2306543 -4.15013672 13.2306543 -4.17578125 12.12695312 C-4.21368559 7.97642808 -4.01006528 4.67574874 -2 1 C-1.34 0.67 -0.68 0.34 0 0 Z " fill="#9570C2" transform="translate(293,225)"/>
<path d="M0 0 C3.7602985 0.58107632 6.53035032 1.65199496 9.8125 3.5625 C10.60269531 4.01753906 11.39289063 4.47257812 12.20703125 4.94140625 C12.79871094 5.29074219 13.39039063 5.64007813 14 6 C13.3791378 9.68297866 12.93325018 11.57688029 10 14 C9.34 13.67 8.68 13.34 8 13 C8.66 12.01 9.32 11.02 10 10 C10.06754834 7.93400917 10.06754834 7.93400917 9 6 C6.80329738 4.06521129 6.80329738 4.06521129 4 3 C1.25760857 3.21329449 1.25760857 3.21329449 -1 4 C-0.67 2.68 -0.34 1.36 0 0 Z " fill="#E1DFE1" transform="translate(214,298)"/>
<path d="M0 0 C6.12892523 0.32257501 11.19327716 3.36101209 16 7 C16.33 7.99 16.66 8.98 17 10 C12.97683781 8.51463956 9.38707358 6.60123107 5.6875 4.4375 C4.61886719 3.81746094 3.55023438 3.19742187 2.44921875 2.55859375 C1.64097656 2.04425781 0.83273438 1.52992188 0 1 C0 0.67 0 0.34 0 0 Z " fill="#D2D1D7" transform="translate(250,306)"/>
<path d="M0 0 C1.98 0.495 1.98 0.495 4 1 C3.67 2.32 3.34 3.64 3 5 C1.68 4.67 0.36 4.34 -1 4 C-0.67 2.68 -0.34 1.36 0 0 Z " fill="#FBF6FC" transform="translate(353,233)"/>
<path d="M0 0 C1.32 0 2.64 0 4 0 C4 1.65 4 3.3 4 5 C2.68 4.67 1.36 4.34 0 4 C0 2.68 0 1.36 0 0 Z " fill="#FCF8F8" transform="translate(255,234)"/>
<path d="M0 0 C0.99 0.33 1.98 0.66 3 1 C2.01 1.33 1.02 1.66 0 2 C0 1.34 0 0.68 0 0 Z " fill="#030B67" transform="translate(539,273)"/>
</svg>
